<?xml version="1.0" ?><!DOCTYPE svg  PUBLIC '-//W3C//DTD SVG 1.1//EN'  'http://www.w3.org/Graphics/SVG/1.1/DTD/svg11.dtd'><svg height="512px" style="enable-background:new 0 0 512 512;" version="1.1" viewBox="0 0 512 512" width="512px" xml:space="preserve" xmlns="http://www.w3.org/2000/svg" xmlns:xlink="http://www.w3.org/1999/xlink"><g id="_x37_26_x2C__Dumbbell_x2C__gain_x2C__lifting_x2C__power_x2C__sport"><g><path d="M307.309,298.726c5.195,0,9.4,4.23,9.4,9.425    c0,5.195-4.205,9.426-9.4,9.426c-5.221,0-9.427-4.23-9.427-9.426C297.882,302.956,302.088,298.726,307.309,298.726     M211.47,217.357h-6.284c2.127,3.711,4.205,7.496,6.284,11.158v-4.428v-0.371V217.357z M313.271,336.947v110.929h-76.419h-14.472    V336.947H313.271z M146.109,217.357v52.225c0,7.372-6.037,13.408-13.408,13.408h-12.618c-7.372,0-13.408-6.036-13.408-13.408    V135.918c0-7.373,6.036-13.41,13.408-13.41h12.618c7.372,0,13.408,6.037,13.408,13.41v9.92v42.303V217.357z M315.794,280.517    h13.878v50.097h-6.48h-9.921h-90.892h-16.401v-50.097h5.492H315.794z M152.442,188.141h59.027v-16.896    c0-7.842,6.432-14.25,14.274-14.25c7.842,0,14.25,6.408,14.25,14.25c0-7.842,6.408-14.25,14.25-14.25    c7.841,0,14.274,6.408,14.274,14.25c0-7.842,6.407-14.25,14.249-14.25c7.843,0,14.25,6.408,14.25,14.25    c0-7.842,6.408-14.25,14.25-14.25c7.843,0,14.274,6.408,14.274,14.25v16.896v75.109l-6.186,10.934H209.96l-0.05-0.248    c-33.026-10.588-18.257-32.012-29.785-44.578c-3.958-4.305-7.101-8.313-9.599-12h-18.084V188.141z M431.25,144.402h-12.566    c-7.348,0-13.359,6.012-13.359,13.36v89.976c0,7.347,6.012,13.358,13.359,13.358h12.566c7.349,0,13.36-6.012,13.36-13.358v-13.359    c0,4.305,3.513,7.842,7.817,7.842h7.371c4.306,0,7.844-3.537,7.844-7.842v-22.563h18.356v-18.134h-18.356v-22.561    c0-4.307-3.538-7.844-7.844-7.844h-7.371c-4.305,0-7.817,3.537-7.817,7.844v-13.359    C444.61,150.414,438.599,144.402,431.25,144.402z M359.558,217.357h-34.017v-29.217h34.017V217.357z M379.299,122.508h12.617    c7.371,0,13.408,6.037,13.408,13.41v133.664c0,7.372-6.037,13.408-13.408,13.408h-12.617c-7.372,0-13.408-6.036-13.408-13.408    v-52.225v-29.217v-42.303v-9.92C365.891,128.545,371.927,122.508,379.299,122.508z M220.103,112.342    c-1.459,0.916-3.414,0.494-4.354-0.966c-0.94-1.484-0.495-3.438,0.964-4.354c6.754-4.304,14.151-7.72,22.018-9.995    c7.62-2.227,15.685-3.412,23.973-3.412c8.287,0,16.328,1.186,23.972,3.412c7.843,2.301,15.265,5.691,22.018,9.995    c1.46,0.94,1.906,2.894,0.965,4.354c-0.939,1.485-2.895,1.905-4.354,0.966c-6.258-3.984-13.111-7.125-20.385-9.254    c-7.025-2.053-14.473-3.141-22.215-3.141c-7.744,0-15.19,1.088-22.216,3.141C233.215,105.192,226.362,108.357,220.103,112.342z     M238.608,137.65c-1.509,0.865-3.438,0.346-4.305-1.164c-0.866-1.509-0.371-3.439,1.138-4.305    c4.083-2.375,8.486-4.23,13.137-5.492c4.502-1.213,9.252-1.854,14.126-1.854c4.873,0,9.623,0.642,14.125,1.854    c4.651,1.262,9.055,3.117,13.138,5.492c1.509,0.865,2.028,2.796,1.138,4.305c-0.866,1.51-2.796,2.029-4.306,1.164    c-3.586-2.104-7.495-3.736-11.603-4.851c-3.957-1.063-8.163-1.632-12.492-1.632c-4.33,0-8.535,0.568-12.493,1.632    C246.104,133.914,242.195,135.546,238.608,137.65z M202.613,88.568c-1.459,0.938-3.414,0.543-4.379-0.893    c-0.964-1.459-0.568-3.438,0.892-4.404c9.252-6.135,19.469-10.982,30.354-14.272c10.539-3.167,21.696-4.875,33.225-4.875    c11.553,0,22.71,1.708,33.225,4.875c10.884,3.29,21.103,8.138,30.354,14.272c1.46,0.966,1.855,2.945,0.891,4.404    c-0.965,1.436-2.92,1.831-4.379,0.893c-8.758-5.816-18.406-10.416-28.672-13.509c-9.945-2.993-20.484-4.601-31.419-4.601    s-21.474,1.607-31.419,4.601C221.019,78.152,211.371,82.752,202.613,88.568z M44.357,193.683H26.001v18.134h18.355v22.563    c0,4.305,3.513,7.842,7.818,7.842h7.372c4.33,0,7.843-3.537,7.843-7.842v13.359c0,7.347,6.011,13.358,13.359,13.358h12.568    c7.347,0,13.359-6.012,13.359-13.358v-89.976c0-7.349-6.012-13.36-13.359-13.36H80.749c-7.348,0-13.359,6.012-13.359,13.36v13.359    c0-4.307-3.513-7.844-7.843-7.844h-7.372c-4.305,0-7.818,3.537-7.818,7.844V193.683z" style="fill-rule:evenodd;clip-rule:evenodd;"/></g></g><g id="Layer_1"/></svg>