<?xml version="1.0" ?><!DOCTYPE svg  PUBLIC '-//W3C//DTD SVG 1.1//EN'  'http://www.w3.org/Graphics/SVG/1.1/DTD/svg11.dtd'><svg enable-background="new 0 0 32 32" height="32px" version="1.1" viewBox="0 0 32 32" width="32px" xml:space="preserve" xmlns="http://www.w3.org/2000/svg" xmlns:xlink="http://www.w3.org/1999/xlink"><g id="ball"/><g id="wistle"/><g id="pitch"/><g id="goal"/><g id="socks"/><g id="shoe"/><g id="jersey"/><g id="bottle"/><g id="shorts"/><g id="corner"/><g id="winner"/><g id="trophy"><path d="M30,17h-8v-3c0-0.552-0.447-1-1-1H11c-0.553,0-1,0.448-1,1v5H2c-0.553,0-1,0.448-1,1v6c0,0.552,0.447,1,1,1h28   c0.553,0,1-0.448,1-1v-8C31,17.448,30.553,17,30,17z M29,25H3v-4h8c0.553,0,1-0.448,1-1v-5h8v3c0,0.552,0.447,1,1,1h8V25z"/><path d="M16,11c0.553,0,1-0.448,1-1V2c0-0.552-0.447-1-1-1s-1,0.448-1,1v8C15,10.552,15.447,11,16,11z"/><path d="M25,15h4c0.553,0,1-0.448,1-1s-0.447-1-1-1h-3v-2h3c0.553,0,1-0.448,1-1V6c0-0.552-0.447-1-1-1h-4c-0.553,0-1,0.448-1,1   s0.447,1,1,1h3v2h-3c-0.553,0-1,0.448-1,1v4C24,14.552,24.447,15,25,15z"/><path d="M3,15c-0.553,0-1,0.448-1,1s0.447,1,1,1h4c0.553,0,1-0.448,1-1V8c0-0.552-0.447-1-1-1H3C2.447,7,2,7.448,2,8s0.447,1,1,1h3   v2H3c-0.553,0-1,0.448-1,1s0.447,1,1,1h3v2H3z"/><path d="M30,29h-8c-0.553,0-1,0.448-1,1s0.447,1,1,1h8c0.553,0,1-0.448,1-1S30.553,29,30,29z"/><path d="M19,29h-2c-0.553,0-1,0.448-1,1s0.447,1,1,1h2c0.553,0,1-0.448,1-1S19.553,29,19,29z"/><path d="M14,29H2c-0.553,0-1,0.448-1,1s0.447,1,1,1h12c0.553,0,1-0.448,1-1S14.553,29,14,29z"/></g><g id="substitution"/><g id="medal_award"/><g id="strategy"/><g id="card"/><g id="gloves"/><g id="stadium"/><g id="keeper"/><g id="time"/><g id="horns"/><g id="flag"/><g id="referee"/><g id="player"/><g id="injury"/><g id="supporter"/><g id="coach"/><g id="cone"/><g id="captain"/><g id="match"/><g id="score"/><g id="celender"/><g id="grass"/><g id="game"/><g id="subsitutions"/><g id="bench"/></svg>